<mxfile host="app.diagrams.net" agent="Mozilla/5.0 (Windows NT 10.0; Win64; x64) AppleWebKit/537.36 (KHTML, like Gecko) Chrome/132.0.0.0 Safari/537.36" version="28.0.7">
  <diagram name="Page-1" id="JTaHlQw25d5qhXP_2Ejd">
    <mxGraphModel dx="1310" dy="752" grid="1" gridSize="10" guides="1" tooltips="1" connect="1" arrows="1" fold="1" page="1" pageScale="1" pageWidth="827" pageHeight="1169" math="0" shadow="0">
      <root>
        <mxCell id="0" />
        <mxCell id="1" parent="0" />
        <mxCell id="rPLYGhFA6RMYlxCIilpD-7" value="plan" style="ellipse;whiteSpace=wrap;html=1;gradientColor=default;" vertex="1" parent="1">
          <mxGeometry x="370" y="10" width="120" height="80" as="geometry" />
        </mxCell>
        <mxCell id="rPLYGhFA6RMYlxCIilpD-8" value="develop" style="ellipse;whiteSpace=wrap;html=1;gradientColor=default;" vertex="1" parent="1">
          <mxGeometry x="365" y="160" width="120" height="80" as="geometry" />
        </mxCell>
        <mxCell id="rPLYGhFA6RMYlxCIilpD-12" value="" style="endArrow=classic;html=1;rounded=0;" edge="1" parent="1">
          <mxGeometry width="50" height="50" relative="1" as="geometry">
            <mxPoint x="426" y="90" as="sourcePoint" />
            <mxPoint x="426" y="160" as="targetPoint" />
            <Array as="points" />
          </mxGeometry>
        </mxCell>
        <mxCell id="rPLYGhFA6RMYlxCIilpD-13" value="release" style="ellipse;whiteSpace=wrap;html=1;gradientColor=default;" vertex="1" parent="1">
          <mxGeometry x="365" y="620" width="120" height="80" as="geometry" />
        </mxCell>
        <mxCell id="rPLYGhFA6RMYlxCIilpD-21" value="" style="endArrow=classic;html=1;rounded=0;" edge="1" parent="1" target="rPLYGhFA6RMYlxCIilpD-23">
          <mxGeometry width="50" height="50" relative="1" as="geometry">
            <mxPoint x="429.38" y="240" as="sourcePoint" />
            <mxPoint x="429.38" y="310" as="targetPoint" />
            <Array as="points" />
          </mxGeometry>
        </mxCell>
        <mxCell id="rPLYGhFA6RMYlxCIilpD-22" value="test" style="ellipse;whiteSpace=wrap;html=1;gradientColor=default;" vertex="1" parent="1">
          <mxGeometry x="365" y="460" width="120" height="80" as="geometry" />
        </mxCell>
        <mxCell id="rPLYGhFA6RMYlxCIilpD-23" value="build" style="ellipse;whiteSpace=wrap;html=1;gradientColor=default;" vertex="1" parent="1">
          <mxGeometry x="365.0000000000001" y="320" width="120" height="80" as="geometry" />
        </mxCell>
        <mxCell id="rPLYGhFA6RMYlxCIilpD-24" value="" style="endArrow=classic;html=1;rounded=0;exitX=0.458;exitY=1;exitDx=0;exitDy=0;exitPerimeter=0;entryX=0.458;entryY=0;entryDx=0;entryDy=0;entryPerimeter=0;" edge="1" parent="1" source="rPLYGhFA6RMYlxCIilpD-23" target="rPLYGhFA6RMYlxCIilpD-22">
          <mxGeometry width="50" height="50" relative="1" as="geometry">
            <mxPoint x="430" y="430" as="sourcePoint" />
            <mxPoint x="430" y="480" as="targetPoint" />
            <Array as="points" />
          </mxGeometry>
        </mxCell>
        <mxCell id="rPLYGhFA6RMYlxCIilpD-25" value="" style="endArrow=classic;html=1;rounded=0;" edge="1" parent="1">
          <mxGeometry width="50" height="50" relative="1" as="geometry">
            <mxPoint x="420" y="550" as="sourcePoint" />
            <mxPoint x="420" y="620" as="targetPoint" />
            <Array as="points" />
          </mxGeometry>
        </mxCell>
      </root>
    </mxGraphModel>
  </diagram>
</mxfile>
